#!OML:ASF I:\Actors\actors\Patient Classification 1\Patient 1\Session 1\Subject1.ASF
:FULLY-SPECIFIED
:DEGREES
1418
root -1.05965 16.5844 8.20795 58.7535 45.7433 -21.6297
lowerback 40.0808 2.07106 6.38138
upperback 10.3193 4.18452 -6.39245
thorax -7.11751 2.1053 -11.9362
lowerneck -7.79879 6.09393 7.1276
upperneck 22.2695 8.20592 -4.89603
head 8.72319 3.85834 -2.03428
rclavicle 2.94201e-014 9.44227e-014
rhumerus 0.974156 47.4438 -95.1714
rradius 130.394
rwrist 19.7226
rhand -11.1184 -17.3732
rfingers 7.12502
rthumb 14.9065 -46.8169
lclavicle 2.94201e-014 9.44227e-014
lhumerus -7.64828 -43.5595 84.4933
lradius 139.313
lwrist 15.3345
lhand -29.2407 -46.9484
lfingers 7.12502
lthumb -2.58413 -16.9843
rfemur -62.1893 10.2835 50.1132
rtibia -4.13865
rfoot -7.57805 -24.978
rtoes 19.1858
lfemur -271.305 -208.806 -208.988
ltibia -2.4548
lfoot -137.966 158.746
ltoes 53.1993
1419
root -1.08036 16.5891 8.17254 58.035 45.6299 -22.1761
lowerback 39.7047 2.17494 6.38639
upperback 10.2728 4.29935 -6.36029
thorax -7.02333 2.15963 -11.9328
lowerneck -7.73784 6.23183 7.21844
upperneck 22.2865 8.38375 -4.90482
head 8.73501 3.94584 -2.03442
rclavicle 0 -1.05952e-013
rhumerus 0.911326 47.4501 -95.2494
rradius 130.33
rwrist 19.6774
rhand -11.0719 -17.1861
rfingers 7.12502
rthumb 14.9512 -46.6265
lclavicle 0 -1.05952e-013
lhumerus -7.8289 -43.4629 84.683
lradius 139.351
lwrist 15.3259
lhand -28.4705 -45.4792
lfingers 7.12502
lthumb -1.84036 -15.5074
rfemur -61.7914 10.4464 50.3679
rtibia -4.14348
rfoot -7.70089 -24.8643
rtoes 19.6687
lfemur -271.539 -209.142 -209.511
ltibia -2.25438
lfoot -137.676 157.771
ltoes 52.683
1420
root -1.09569 16.6016 8.12791 57.2978 45.5413 -22.3687
lowerback 39.4456 2.14491 6.51711
upperback 10.229 4.31517 -6.30912
thorax -6.97744 2.16935 -11.9435
lowerneck -7.6536 6.29887 7.35034
upperneck 22.192 8.47517 -4.99233
head 8.70382 3.99319 -2.0779
rclavicle -1.19271e-015 5.10877e-014
rhumerus 0.880198 47.3666 -95.2409
rradius 130.347
rwrist 19.6849
rhand -10.4984 -17.4419
rfingers 7.12502
rthumb 15.5037 -46.8403
lclavicle -1.19271e-015 5.10877e-014
lhumerus -7.87656 -43.0664 84.8338
lradius 139.431
lwrist 14.803
lhand -30.8235 -50.0464
lfingers 7.12502
lthumb -4.1127 -20.1064
rfemur -61.3108 10.1622 50.4576
rtibia -4.15936
rfoot -7.75817 -24.7872
rtoes 20.1252
lfemur -271.758 -209.066 -210.886
ltibia -2.02892
lfoot -136.644 156.093
ltoes 52.0026
1421
root -1.11335 16.6171 8.08165 56.531 45.265 -22.4875
lowerback 39.0212 2.17676 6.47855
upperback 10.1774 4.33602 -6.27439
thorax -6.89502 2.18353 -11.8768
lowerneck -7.53977 6.34366 7.43163
upperneck 21.9597 8.53993 -5.07466
head 8.61568 4.02757 -2.11531
rclavicle -3.65764e-014 -1.11916e-013
rhumerus 0.871085 47.3259 -95.2061
rradius 130.495
rwrist 19.8154
rhand -9.36128 -18.3504
rfingers 7.12502
rthumb 16.5986 -47.6606
lclavicle -3.65764e-014 -1.11916e-013
lhumerus -8.03805 -43.3089 85.0505
lradius 139.455
lwrist 14.9267
lhand -28.3318 -44.2074
lfingers 7.12502
lthumb -1.70635 -14.2345
rfemur -60.7564 9.88011 50.3696
rtibia -4.19164
rfoot -7.79652 -24.704
rtoes 20.2682
lfemur -271.752 -209.115 -212.153
ltibia -1.85957
lfoot -135.739 154.551
ltoes 51.2579
1422
root -1.13551 16.6354 8.03884 55.6487 44.7888 -22.707
lowerback 38.2943 2.30896 6.22589
upperback 10.2002 4.38051 -6.28997
thorax -6.7705 2.20934 -11.7499
lowerneck -7.5003 6.43265 7.59327
upperneck 21.7307 8.65229 -5.17656
head 8.55118 4.08694 -2.16475
rclavicle 1.19271e-014 3.45885e-014
rhumerus 0.957474 47.5035 -95.2182
rradius 130.699
rwrist 20.3665
rhand -8.41397 -20.0006
rfingers 7.12502
rthumb 17.5105 -49.232
lclavicle 1.19271e-014 3.45885e-014
lhumerus -8.023 -43.2281 84.9941
lradius 139.475
lwrist 14.5814
lhand -30.3135 -46.7117
lfingers 7.12502
lthumb -3.62025 -16.7627
rfemur -60.0523 9.77028 50.2059
rtibia -4.25818
rfoot -7.83813 -24.5997
rtoes 20.2961
lfemur -271.246 -209.568 -212.496
ltibia -1.84267
lfoot -135.507 153.994
ltoes 50.8477
